<?xml version="1.0" encoding="UTF-8"?>
<svg xmlns="http://www.w3.org/2000/svg" version="1.1" viewBox="0 0 92 29">
  <defs>
    <style>
      .cls-1 {
        fill: #fff;
      }
    </style>
  </defs>
  <!-- Generator: Adobe Illustrator 28.7.1, SVG Export Plug-In . SVG Version: 1.2.0 Build 142)  -->
  <g>
    <g id="Layer_1">
      <path class="cls-1" d="M0,22.7c0,3.7,2.7,5.7,5.7,5.7s4.8-1.7,5.7-2.7v.9c0,1.4.4,1.7,1.9,1.7s3.4-.3,4.1-.5v-1.9h-1.8v-10.4c0-4.9-1.7-6.9-6.9-6.9S1.6,10.6.8,11.3l1.1,2.2c1.1-.5,3.2-1.5,5.7-1.5s3.6,1.1,3.6,3.7v.8C5,16.5,0,18.4,0,22.7ZM8,25.6c-1.7,0-2.9-1.1-2.9-3.3s1.8-3.7,6.1-3.7v5.6c-.9.8-2.2,1.5-3.2,1.5ZM23.6,25.7l-2,.3v2h8.9v-2l-2-.3v-12.4c1-.7,2.6-1.7,4.1-1.7,2.3,0,2.9,1.3,2.9,4.7v9.4l-1.8.3v2h8.8v-2l-2.1-.3v-9.4c0-5.4-1.3-7.6-5.4-7.6s-5.5,1.4-6.9,2.8v-.8s0-1.3,0-1.3l-.9-.7h-.1l-5.6.7v2.3l2.2.6v13.3ZM52.5,28.3c2.4,0,5.2-1,6.4-1.9l-.6-1.9c-.7.3-2.1.6-3.3.6s-1.7-.3-1.7-3.9v-9.6h5.2v-2.6h-5.2v-5h-2.9c-.3,1-.7,2.7-1.1,3.5-.3.7-.6,1.2-1,1.5-.5.2-1.4.5-2.1.8v1.8h2.2v12.5c0,2.9,1.4,4.1,4.2,4.1ZM66.8,6h0c2,0,3.1-1.2,3.1-3s-.9-2.6-2.8-2.6-3,1.3-3,3,1,2.5,2.7,2.5ZM64.9,25.7l-2.4.3v2h9.5v-2l-2.3-.3V9.3l-1-.7h0l-6.2.7v2.3l2.4.6v13.3ZM76.1,18.7c0,5.5,2.7,9.7,8.7,9.7s5.7-1.6,6.6-2.6l-.8-1.8c-1.1.7-2.7,1.4-4.8,1.4s-4.7-2.6-4.7-7.7c0-4.9,1.7-6.9,4.1-6.9s1.8.2,2,.9l.9,3.7h3l.2-5.8c-1.1-.2-2.7-1-5.5-1-6,0-9.7,4.2-9.7,10.1Z"/>
    </g>
  </g>
</svg>